# xmcd
#
# Track frame offsets: 
#        150
#        9643
#        21211
#        32973
#        47795
#        57643
#        73553
#        87279
#        102209
#        114554
#        126769
#        140147
#        151058
#        167401
#        177174
#        189863
#        206484
#        222565
#        240237
#        259097
#
# Disc length: 3606 seconds
#
# Revision: 0
# Processed by: cddbd v1.5.2PL0 Copyright (c) Steve Scherf et al.
# Submitted via: ExactAudioCopy v0.95b4
#
DISCID=160e1414
DTITLE=Various Artist - 20 Years Of #1 Country Hits 1970-1989
DYEAR=2007
DGENRE=Country
TTITLE0=David Houston - Baby, Baby (I Know You're A Lady)
TTITLE1=Lynn Anderson - You're My Man
TTITLE2=Donna Fargo - The Happiest Girl In The Whole USA
TTITLE3=Jeannie Pruett - Satin Sheets
TTITLE4=Lynn Anderson - What A Man My Man Is
TTITLE5=BJ Thomas - Another Somebody Done Somebody Wrong Song
TTITLE6=Mickey Gilley - Don't The Girls All Get Prettier At Closing Ti
TTITLE6=me
TTITLE7=Donna Fargo - That Was Yesterday
TTITLE8=Johnny Paycheck - Take This Job And Shove It
TTITLE9=Moe Bandy - Good Old Boys
TTITLE10=T.G. Sheppard - I'll Be Coming Back For More
TTITLE11=Mickey Gilley - You Don't Know Me
TTITLE12=Janie Fricke - It Ain't Easy Being Easy
TTITLE13=Mickey Gilley - Talk To Me
TTITLE14=Janie Fricke - Your Heart's Not In It
TTITLE15=Exile - Hang Onto Your Heart
TTITLE16=Juice Newton - Hurt
TTITLE17=Graham T. Brown - Don't Go To Strangers
TTITLE18=Exile - I Can't Get Close Enough
TTITLE19=Holly Dunn - Are You Ever Gonna Love Me
EXTD=
EXTT0=
EXTT1=
EXTT2=
EXTT3=
EXTT4=
EXTT5=
EXTT6=
EXTT7=
EXTT8=
EXTT9=
EXTT10=
EXTT11=
EXTT12=
EXTT13=
EXTT14=
EXTT15=
EXTT16=
EXTT17=
EXTT18=
EXTT19=
PLAYORDER=
